<svg width="86" height="112" viewBox="0 0 86 112" fill="none" xmlns="http://www.w3.org/2000/svg">
<g clip-path="url(#clip0_713_78)">
<rect width="86" height="112" fill="white"/>
<g clip-path="url(#clip1_713_78)">
<path d="M54.4746 74.1601H31.2929C26.9606 74.1601 23.4407 70.6193 23.4407 66.3079V43.1261C23.4407 38.7939 26.9606 35.2739 31.2929 35.2739H54.4746C58.786 35.2739 62.3268 38.7939 62.3268 43.1261V66.3079C62.3268 70.6193 58.786 74.1601 54.4746 74.1601Z" fill="black"/>
<path d="M44.3107 57.7268H30.3558C29.3769 57.7268 28.5854 58.5183 28.5854 59.4972C28.5854 60.4761 29.3769 61.2676 30.3558 61.2676H46.4352C46.4352 61.2676 47.2683 60.4345 46.3727 59.0806C45.4562 57.7268 44.3107 57.7268 44.3107 57.7268Z" fill="white"/>
<path d="M43.6024 42.8346L34.9379 57.8308C34.4589 58.6848 34.7296 59.7678 35.5836 60.2469C36.4375 60.7259 37.5206 60.4552 37.9997 59.6012L46.6642 44.6049C47.1432 43.751 46.8725 42.6679 46.0185 42.1889C45.1645 41.689 44.0815 41.9806 43.6024 42.8346Z" fill="white"/>
<path d="M54.2038 64.2667L45.3101 48.833C45.3101 48.833 44.0188 49.8328 44.0188 51.8114C44.0188 53.7901 44.8311 55.1231 44.8311 55.1231L51.142 66.0579C51.6211 66.9118 52.7041 67.2034 53.5581 66.7036C54.3912 66.2037 54.6828 65.1206 54.2038 64.2667Z" fill="white"/>
<path d="M55.0995 57.7268H50.1632C49.1843 57.7268 48.3928 58.5183 48.3928 59.4972C48.3928 60.4761 49.1843 61.2676 50.1632 61.2676H55.0995C56.0784 61.2676 56.8699 60.4761 56.8699 59.4972C56.8699 58.5391 56.0784 57.7268 55.0995 57.7268Z" fill="white"/>
<path d="M43.7066 46.0837L41.832 42.8137C41.353 41.9805 40.2491 41.689 39.416 42.168C38.5828 42.647 38.2912 43.7509 38.7703 44.5841L40.6448 47.8541C41.1239 48.6872 42.2278 48.9788 43.0609 48.4998C43.894 48.0207 44.1856 46.9376 43.7066 46.0837Z" fill="white"/>
<path d="M31.2304 64.2456L32.3551 62.3086C32.3551 62.3086 32.6259 61.7671 33.6881 61.7671C34.8128 61.7671 35.8959 62.7044 35.9792 63.0584L34.2921 66.016C33.8131 66.87 32.73 67.1616 31.8761 66.6617C31.0221 66.1827 30.7514 65.0996 31.2304 64.2456Z" fill="white"/>
</g>
<g clip-path="url(#clip2_713_78)">
<path d="M65.5832 34.2788C65.8254 34.7118 66.8767 35.8739 67.356 36.2438C68.2025 36.8937 68.4252 37.018 69.2077 37.2802C69.9664 37.5278 70.8907 37.5878 71.013 37.3904C71.1275 37.2109 70.9058 36.5162 70.5533 35.9675C70.2353 35.4591 70.1192 35.3371 69.6074 34.9832C68.5671 34.2428 67.01 33.7691 66.034 33.8935C65.7679 33.9227 65.5195 33.9725 65.4993 33.9897C65.4723 34.0128 65.5126 34.1416 65.5832 34.2788Z" fill="black"/>
<path d="M71.0682 33.1649C71.0437 33.64 71.2422 34.9484 71.4798 35.9212C71.7099 36.8306 72.1251 37.6977 72.607 38.2753C73.06 38.8192 73.7065 39.3029 73.8935 39.2359C74.0873 39.1631 74.3752 38.4515 74.402 37.9513C74.4884 36.6088 74.1874 35.7252 73.2235 34.4888C72.6935 33.8009 72.4896 33.6031 71.9306 33.2079C71.5625 32.9405 71.2279 32.7261 71.1778 32.7222C71.1225 32.7109 71.0753 32.9145 71.0682 33.1649Z" fill="black"/>
<path d="M66.8913 39.2957C67.1329 39.5783 68.2377 40.1353 69.0042 40.365C70.6052 40.8354 72.0278 40.7836 72.6919 40.2396C72.9743 39.9983 72.9834 39.9675 72.854 39.6936C72.4921 38.9436 71.4603 38.4172 70.0956 38.2912C69.2101 38.2218 68.3046 38.4018 67.4804 38.8271C67.2586 38.935 67.0098 39.0661 66.9317 39.0979C66.8214 39.146 66.8107 39.2013 66.8913 39.2957Z" fill="black"/>
<path d="M75.4726 36.4658C75.1869 37.4665 75.174 39.2354 75.4324 40.4228C75.6794 41.5969 76.4107 42.9155 76.9105 43.1058C77.0565 43.1673 77.1274 43.1416 77.3014 42.9231C78.1484 41.8851 78.1815 40.099 77.3827 38.3602C77.0842 37.6844 76.085 36.3381 75.7784 36.1696L75.5855 36.0665L75.4726 36.4658Z" fill="black"/>
<path d="M70.0229 42.0204C70.3966 42.5392 71.6297 43.3827 72.5302 43.7422C73.3764 44.0783 74.4155 44.1909 75.2623 44.0379C75.6377 43.9732 75.9632 43.9043 75.9766 43.8929C75.9967 43.8757 75.9548 43.6903 75.8774 43.4773C75.3654 41.9246 72.9556 40.9577 70.9298 41.5015C70.2442 41.6799 69.9153 41.8675 70.0229 42.0204Z" fill="black"/>
<path d="M74.3145 40.5992C74.3362 40.6385 74.7658 41.2497 75.2636 41.9415C76.4628 43.6172 76.7752 44.1184 77.4882 45.5112C78.7504 47.9824 79.6116 50.529 79.9892 52.9182C80.3001 54.8757 80.4365 58.8214 80.2262 59.8279C80.1683 60.0868 80.0888 60.6208 80.0452 61.0189C79.8228 62.8154 79.1369 65.2405 78.2705 67.2503C75.6821 73.2923 70.4333 78.4414 64.4901 80.7624C62.9813 81.3534 61.0582 81.868 58.3558 82.3967C58.0244 82.4588 58.0244 82.4588 58.0279 82.7349C58.0354 82.8799 58.0725 83.0458 58.1128 83.093C58.3657 83.389 62.2946 82.4288 64.6136 81.5062C70.1853 79.2815 75.0848 74.8266 77.919 69.4127C79.9278 65.5659 80.9953 60.6724 80.7324 56.4155C80.6646 55.3562 80.4548 52.9862 80.4259 52.9524C80.4087 52.9322 80.2159 52.1891 79.9894 51.3115C79.5151 49.4356 79.0236 48.0979 78.1796 46.3747C77.438 44.8669 76.6443 43.5431 75.6873 42.2193C75.1033 41.4266 74.1093 40.2505 74.3145 40.5992Z" fill="black"/>
<path d="M73.1338 46.0547C73.6801 46.6938 73.9376 46.9274 74.4576 47.2631C75.6637 48.048 76.3987 48.281 77.5891 48.2301L78.1426 48.2107L78.1335 47.9274C78.1111 47.4929 77.8394 46.7936 77.5578 46.4641C76.9588 45.7772 76.0102 45.3074 74.7656 45.0906C74.0163 44.9627 72.7502 45.0204 72.5482 45.193C72.4812 45.2503 72.6337 45.4695 73.1338 46.0547Z" fill="black"/>
<path d="M79.1145 40.9313C78.6916 42.0841 78.397 43.3603 78.3572 44.2673C78.3047 45.4183 78.5764 46.5943 79.0424 47.2205C79.3942 47.6999 79.3181 47.7064 80.0408 47.0538C80.3443 46.7826 80.4465 46.6024 80.6661 45.9605C81.1161 44.6212 81.0278 43.3463 80.359 41.7881C80.0356 41.0283 79.5062 40.1771 79.4051 40.2636C79.3719 40.2926 79.2417 40.5901 79.1145 40.9313Z" fill="black"/>
<path d="M74.391 48.9963C74.3991 49.4549 75.3655 50.8174 76.17 51.5269C76.4815 51.7959 76.981 52.1491 77.2812 52.3232C77.8766 52.6524 79.2487 53.0045 79.4588 52.8828C79.6299 52.7834 79.5676 51.9748 79.3497 51.3933C79.0074 50.4751 77.9086 49.5168 76.7356 49.1111C76.2897 48.9569 74.5374 48.7316 74.4431 48.8123C74.4158 48.835 74.3966 48.9212 74.391 48.9963Z" fill="black"/>
<path d="M81.6577 46.3585C80.8343 47.7376 80.4719 48.7572 80.3725 50.0298C80.3266 50.6161 80.3379 51.3511 80.3954 51.6634C80.4847 52.2039 80.726 52.6495 80.9315 52.672C80.9816 52.6759 81.3485 52.3972 81.7453 52.0581C82.4449 51.4601 82.4726 51.4246 82.7644 50.7446C83.2642 49.5723 83.3265 48.1338 82.952 46.5919C82.8555 46.2201 82.7024 45.769 82.611 45.5798C82.3792 45.1598 82.3792 45.1598 81.6577 46.3585Z" fill="black"/>
<path d="M75.5506 53.4177C76.1074 55.2817 77.3316 56.959 78.6734 57.6978C79.172 57.9815 79.7642 58.1159 79.9053 57.9952C79.9525 57.9549 80.0016 57.645 80.0088 57.3129C80.0465 55.7909 79.2596 54.4613 77.8011 53.6129C77.2372 53.2798 76.0869 52.9014 75.6108 52.8889C75.4043 52.8791 75.4024 52.9039 75.5506 53.4177Z" fill="black"/>
<path d="M75.7055 57.7669C75.7639 58.5433 76.1706 60.0813 76.4941 60.7595C76.7093 61.2155 76.9899 61.6393 77.4487 62.1899C78.0513 62.9088 78.1456 62.9914 78.6184 63.2042L79.1459 63.44L79.2761 63.0608C79.5315 62.3652 79.595 61.5545 79.4325 60.983C79.3486 60.6939 79.2615 60.3608 79.2375 60.2649C79.1709 59.9143 77.9895 58.4912 77.4311 58.0836C76.9144 57.7102 75.8201 57.1793 75.7193 57.2654C75.6929 57.2886 75.6877 57.5142 75.7055 57.7669Z" fill="black"/>
<path d="M83.158 52.1309C82.0475 53.4876 81.3054 54.9481 81.1407 56.0903C81.0486 56.7043 81.0891 57.9502 81.1983 58.0781C81.2903 58.1857 82.2638 57.8541 82.6817 57.5667C83.7964 56.8003 84.708 54.7756 84.7027 53.0808C84.6998 52.4781 84.5599 50.9795 84.5023 50.9121C84.4276 50.8246 83.6229 51.5585 83.158 52.1309Z" fill="black"/>
<path d="M74.9781 62.4044C74.8371 63.7239 75.1025 65.3826 75.6438 66.4796C75.8926 66.9886 76.6476 67.9266 76.9995 68.1612C77.2612 68.345 77.4753 68.1733 77.7469 67.5921C78.1916 66.6419 78.1463 65.458 77.6277 64.3067C77.312 63.6106 76.2992 62.4387 75.6491 62.0054C75.3863 61.8343 75.1447 61.7149 75.1112 61.7436C75.078 61.7719 75.0168 62.0685 74.9781 62.4044Z" fill="black"/>
<path d="M73.236 66.617C72.9803 67.4755 72.8737 69.1618 73.0202 70.0143C73.0849 70.3896 73.2416 70.9542 73.368 71.2655C73.6311 71.9137 74.2921 72.8505 74.4638 72.8202C74.6479 72.7906 75.2643 71.9728 75.4657 71.4866C75.9898 70.2473 75.5949 68.3147 74.5154 66.7928C74.1876 66.3277 73.5994 65.8297 73.4849 65.9276C73.4576 65.9503 73.345 66.2677 73.236 66.617Z" fill="black"/>
<path d="M82.4101 59.3465C81.4115 60.3981 80.6838 61.8345 80.5295 63.0837L80.4448 63.7611L80.9317 63.7177C81.7591 63.6505 82.2577 63.4574 82.9521 62.9218C83.7458 62.3251 84.1455 61.7853 84.6293 60.6621C85.0203 59.7577 85.2559 58.7531 85.3244 57.7979C85.3576 57.2921 85.33 57.1643 85.2093 57.1864C84.8788 57.2365 83.1686 58.5586 82.4101 59.3465Z" fill="black"/>
<path d="M70.7873 70.0717C70.0485 71.3318 69.6001 73.5309 69.8236 74.76C69.9188 75.3074 70.4114 76.5508 70.562 76.6315C70.8686 76.7999 71.9404 75.6976 72.2758 74.8638C72.3682 74.6453 72.4747 74.0888 72.5099 73.6394C72.592 72.5915 72.3258 71.5036 71.7626 70.5997C71.5499 70.2692 71.3275 69.9004 71.2563 69.7755C71.1129 69.526 71.0992 69.5377 70.7873 70.0717Z" fill="black"/>
<path d="M67.0027 73.6788C65.7767 75.472 65.2837 77.2785 65.5901 78.8904C65.6711 79.2985 65.7754 79.6517 65.83 79.6748C66.02 79.7337 66.7453 79.3699 67.1893 78.9904C68.0636 78.2432 68.5327 77.2253 68.6191 75.8828C68.6631 75.3212 68.6078 74.9029 68.3894 74.0889C67.9873 72.57 68.0045 72.5902 67.6539 72.9017C67.4919 73.0395 67.2008 73.393 67.0027 73.6788Z" fill="black"/>
<path d="M79.4663 67.0426C79.0607 67.5756 78.6342 68.4523 78.6221 68.7648C78.6192 68.9655 78.6419 68.9922 78.9642 69.1243C79.3834 69.3012 80.3633 69.209 81.0499 68.9362C81.3348 68.8205 81.8175 68.5132 82.2585 68.1712C83.1003 67.5215 83.7128 66.7537 84.247 65.7033C84.6039 64.9908 84.9598 63.8136 84.8372 63.7788C84.5745 63.6893 83.1945 64.24 82.058 64.8854C81.105 65.4326 79.9845 66.3554 79.4663 67.0426Z" fill="black"/>
<path d="M76.2526 72.6524C75.8788 73.1002 75.563 73.6842 75.6433 73.7782C75.6836 73.8254 75.9444 73.9402 76.2313 74.044C77.2817 74.4149 78.4824 74.3084 79.6819 73.7369C80.8229 73.1923 82.2427 71.7345 82.828 70.5127C83.0609 70.0226 83.0245 70.007 81.7314 70.1695C79.564 70.4391 77.2148 71.5042 76.2526 72.6524Z" fill="black"/>
<path d="M66.7765 81.4501C67.0782 81.9256 67.9046 82.5112 68.6317 82.7627C68.9618 82.8762 69.5875 82.982 70.0191 82.997C71.3896 83.0476 73.4386 82.3675 74.7797 81.4307L75.2851 81.0685L74.7241 80.8613C71.4116 79.6415 68.8443 79.6473 66.9402 80.879L66.5762 81.1203L66.7765 81.4501Z" fill="black"/>
<path d="M71.7317 77.6457C71.367 78.2135 72.8701 78.9777 74.2962 78.9577C75.6543 78.9261 77.0285 78.3685 78.4063 77.2837C79.3362 76.5469 79.7402 76.1206 79.6609 75.9323C79.5978 75.7768 77 75.6106 76.0948 75.7093C75.1205 75.8087 74.1074 76.0808 73.4025 76.427C72.8093 76.7135 71.9096 77.3771 71.7317 77.6457Z" fill="black"/>
</g>
<g clip-path="url(#clip3_713_78)">
<path d="M18.1736 33.0152C17.956 33.4701 16.9652 34.7174 16.503 35.1237C15.6866 35.8381 15.4688 35.9787 14.6921 36.2956C13.9386 36.5961 13.0049 36.7171 12.868 36.5248C12.7402 36.3502 12.9199 35.631 13.2417 35.0515C13.5312 34.5151 13.641 34.3838 14.1372 33.9915C15.1443 33.1728 16.693 32.5909 17.6912 32.6536C17.9629 32.666 18.2182 32.7002 18.2398 32.7164C18.2687 32.7381 18.2362 32.8713 18.1736 33.0152Z" fill="black"/>
<path d="M12.5371 32.2418C12.5928 32.7223 12.4765 34.0624 12.2988 35.0646C12.1246 36.0021 11.7598 36.9087 11.3085 37.526C10.8844 38.1071 10.2601 38.6399 10.0661 38.5841C9.86468 38.5228 9.52633 37.8198 9.46665 37.3141C9.29169 35.9579 9.53954 35.0419 10.4368 33.7251C10.9297 32.9928 11.1236 32.7789 11.665 32.3416C12.021 32.0464 12.3465 31.8072 12.397 31.7999C12.4523 31.7848 12.5135 31.9883 12.5371 32.2418Z" fill="black"/>
<path d="M17.1731 38.1895C16.9464 38.4919 15.862 39.1288 15.0994 39.4116C13.506 39.9931 12.0596 40.0331 11.3504 39.5244C11.0483 39.298 11.0371 39.2673 11.1505 38.9811C11.4688 38.1967 12.4813 37.5957 13.8573 37.379C14.7511 37.251 15.6813 37.3747 16.5451 37.7525C16.7771 37.8476 17.038 37.9643 17.1193 37.9915C17.2343 38.0331 17.2488 38.0885 17.1731 38.1895Z" fill="black"/>
<path d="M8.28374 35.8772C8.63863 36.8736 8.76684 38.6672 8.58198 39.8885C8.40781 41.0956 7.7518 42.4807 7.25719 42.7063C7.11307 42.7782 7.03948 42.7567 6.84874 42.5464C5.92201 41.5485 5.77223 39.7388 6.4694 37.9231C6.7282 37.2181 7.6542 35.7874 7.95431 35.5966L8.1432 35.4794L8.28374 35.8772Z" fill="black"/>
<path d="M14.1735 41.157C13.8283 41.7076 12.6323 42.6434 11.7422 43.0667C10.9057 43.4627 9.85897 43.6446 8.98994 43.5444C8.60501 43.5032 8.27026 43.4545 8.256 43.4438C8.23442 43.4277 8.26489 43.2369 8.32953 43.0157C8.74788 41.4074 11.1294 40.2698 13.2199 40.6896C13.9269 40.826 14.2727 40.9949 14.1735 41.157Z" fill="black"/>
<path d="M9.72784 39.9942C9.70829 40.0355 9.31236 40.6834 8.85239 41.4176C7.74498 43.1954 7.46062 43.7242 6.82796 45.1834C5.7084 47.7723 5.00055 50.4116 4.77298 52.8597C4.58493 54.8657 4.70332 58.877 4.98209 59.8844C5.05768 60.1432 5.17304 60.6798 5.2432 61.0807C5.58569 62.8886 6.43926 65.304 7.44889 67.2864C10.4676 73.2469 16.1271 78.1287 22.3068 80.0963C23.8758 80.5977 25.8601 80.9945 28.6358 81.3551C28.976 81.3965 28.976 81.3965 28.9904 81.6768C28.9922 81.8244 28.9654 81.9951 28.9276 82.0456C28.6902 82.3623 24.6423 81.6439 22.23 80.8589C16.4332 78.9647 11.1734 74.7645 7.94616 69.457C5.65814 65.6855 4.25692 60.791 4.24655 56.4557C4.24644 55.3768 4.30502 52.9591 4.33215 52.9229C4.34832 52.9013 4.49549 52.1349 4.66821 51.23C5.02722 49.2962 5.4388 47.9072 6.18286 46.1043C6.83705 44.5265 7.55602 43.1321 8.44062 41.7269C8.98145 40.8849 9.91327 39.6271 9.72784 39.9942Z" fill="black"/>
<path d="M11.2808 45.452C10.7682 46.1359 10.5222 46.3895 10.0166 46.7639C8.84412 47.6386 8.1137 47.9228 6.90294 47.9486L6.34016 47.9649L6.33092 47.677C6.32537 47.2348 6.55556 46.5077 6.81978 46.1552C7.38268 45.4194 8.31438 44.8811 9.56279 44.5802C10.3145 44.4017 11.6026 44.3779 11.8188 44.5398C11.8905 44.5936 11.75 44.8259 11.2808 45.452Z" fill="black"/>
<path d="M4.88017 40.6434C5.38422 41.7854 5.76602 43.0607 5.86543 43.9782C5.99363 45.1424 5.79451 46.353 5.36258 47.0185C5.03689 47.5277 5.1145 47.5294 4.33888 46.9144C4.01338 46.659 3.89805 46.4829 3.63348 45.846C3.08987 44.5168 3.09645 43.2178 3.67348 41.5936C3.95217 40.8018 4.43375 39.9039 4.54201 39.9851C4.57757 40.0123 4.72895 40.3057 4.88017 40.6434Z" fill="black"/>
<path d="M10.1966 48.5175C10.2182 48.9832 9.32662 50.4282 8.5567 51.2002C8.25818 51.4934 7.7745 51.8842 7.48133 52.0803C6.89874 52.453 5.52981 52.8994 5.30875 52.7897C5.12873 52.6999 5.13932 51.8757 5.32247 51.2716C5.60997 50.3179 6.66224 49.2744 7.82577 48.7865C8.26803 48.6011 10.0309 48.2585 10.1318 48.3342C10.161 48.3555 10.1861 48.4416 10.1966 48.5175Z" fill="black"/>
<path d="M2.65351 46.3145C3.57846 47.66 4.01245 48.6706 4.19608 49.9551C4.28084 50.5469 4.3172 51.2932 4.2792 51.6137C4.22373 52.1678 4.00799 52.6355 3.80096 52.6717C3.75042 52.6789 3.36012 52.4201 2.93551 52.1019C2.18688 51.5408 2.15652 51.5066 1.81626 50.8358C1.23304 49.6791 1.07623 48.224 1.35574 46.6355C1.42947 46.2521 1.55544 45.7846 1.63581 45.5866C1.84361 45.1455 1.84361 45.1455 2.65351 46.3145Z" fill="black"/>
<path d="M9.30801 53.0781C8.86445 55.0051 7.73172 56.7862 6.41869 57.623C5.93143 57.9431 5.33945 58.118 5.18841 58.0048C5.13794 57.967 5.06791 57.6558 5.039 57.3194C4.90181 55.7779 5.61346 54.378 7.03778 53.4225C7.5881 53.0479 8.73033 52.5892 9.21248 52.5456C9.42134 52.5222 9.42491 52.5471 9.30801 53.0781Z" fill="black"/>
<path d="M9.43376 57.4997C9.42499 58.291 9.11256 59.8777 8.82853 60.5866C8.63985 61.0632 8.38278 61.5113 7.95319 62.0998C7.38875 62.8682 7.29847 62.9581 6.83266 63.2047L6.31293 63.4783L6.15622 63.1021C5.85188 62.4131 5.73469 61.5948 5.86236 61.0046C5.92862 60.7058 5.99532 60.3623 6.01348 60.2634C6.05823 59.9034 7.164 58.383 7.70387 57.9332C8.20372 57.5208 9.27927 56.911 9.38716 56.9919C9.41541 57.0136 9.43541 57.2422 9.43376 57.4997Z" fill="black"/>
<path d="M1.50769 52.2674C2.72248 53.5714 3.57023 55.0046 3.81166 56.1525C3.94505 56.7694 3.98507 58.0359 3.88256 58.1727C3.79622 58.2879 2.78718 58.0148 2.34449 57.7505C1.16391 57.0456 0.107478 55.051 0.00258978 53.3315C-0.0337268 52.72 0.010718 51.1906 0.0647146 51.1186C0.134883 51.025 0.998917 51.7171 1.50769 52.2674Z" fill="black"/>
<path d="M10.4731 62.1567C10.702 63.4859 10.5407 65.1858 10.0629 66.3338C9.84374 66.8663 9.13889 67.867 8.79721 68.1278C8.54363 68.3313 8.31533 68.171 8.00197 67.5992C7.48902 66.6642 7.45797 65.4604 7.9091 64.2587C8.18406 63.5321 9.13525 62.2774 9.76652 61.7956C10.0219 61.6049 10.2593 61.4681 10.2951 61.495C10.3306 61.5215 10.412 61.8184 10.4731 62.1567Z" fill="black"/>
<path d="M12.5147 66.3168C12.83 67.1711 13.0479 68.8747 12.9547 69.749C12.9135 70.1339 12.7913 70.7168 12.6833 71.0408C12.4586 71.7155 11.849 72.7087 11.6729 72.6892C11.4842 72.6712 10.8057 71.8817 10.5698 71.4016C9.95752 70.1785 10.2323 68.1925 11.2284 66.5784C11.5306 66.0853 12.0949 65.5418 12.2174 65.6337C12.2466 65.6549 12.3814 65.9696 12.5147 66.3168Z" fill="black"/>
<path d="M2.73534 59.5383C3.81675 60.5401 4.64839 61.9498 4.8862 63.207L5.01613 63.8886L4.51942 63.8762C3.67573 63.8619 3.1574 63.6984 2.41812 63.2003C1.57424 62.6467 1.13358 62.1251 0.569772 61.0172C0.114265 60.1252 -0.190093 59.1215 -0.32168 58.157C-0.388305 57.6461 -0.368606 57.5147 -0.244745 57.5293C0.0937442 57.5585 1.91462 58.7884 2.73534 59.5383Z" fill="black"/>
<path d="M15.2233 69.6617C16.0547 70.892 16.6527 73.0936 16.5059 74.3548C16.445 74.9163 16.0262 76.2096 15.8787 76.3013C15.5786 76.4922 14.4197 75.4437 14.0251 74.6197C13.9172 74.404 13.7731 73.8465 13.7081 73.3929C13.5566 72.3352 13.7559 71.2143 14.2683 70.2608C14.4626 69.9117 14.6642 69.5231 14.7283 69.3918C14.8575 69.1294 14.8722 69.1404 15.2233 69.6617Z" fill="black"/>
<path d="M19.297 73.0744C20.6574 74.8136 21.275 76.6141 21.069 78.2691C21.0135 78.6884 20.9306 79.0535 20.8767 79.0805C20.6879 79.1525 19.9284 78.8307 19.4534 78.4747C18.5179 77.7735 17.9757 76.7715 17.8008 75.4153C17.7196 74.8484 17.7484 74.4206 17.917 73.5806C18.2261 72.0137 18.2099 72.0353 18.5859 72.3285C18.7591 72.4577 19.0774 72.7974 19.297 73.0744Z" fill="black"/>
<path d="M6.22211 67.1538C6.66826 67.6681 7.15795 68.5297 7.19051 68.846C7.20658 69.0493 7.1852 69.0779 6.86689 69.2328C6.45316 69.4396 5.45317 69.4098 4.73894 69.1778C4.44238 69.0789 3.93279 68.7986 3.46312 68.4803C2.56695 67.8761 1.89569 67.1371 1.28546 66.1064C0.877093 65.4068 0.439399 64.2358 0.561502 64.1925C0.822245 64.0846 2.25794 64.5535 3.45272 65.1343C4.45507 65.6273 5.65178 66.4905 6.22211 67.1538Z" fill="black"/>
<path d="M9.84716 72.6355C10.2554 73.0654 10.6138 73.6373 10.5385 73.7379C10.5006 73.7883 10.2436 73.9218 9.95934 74.0457C8.91792 74.4903 7.69298 74.4604 6.43899 73.9587C5.24616 73.4805 3.71107 72.0941 3.03791 70.8928C2.76974 70.4108 2.80565 70.3926 4.12796 70.4732C6.34405 70.6057 8.79643 71.5333 9.84716 72.6355Z" fill="black"/>
<path d="M20.0321 80.9429C19.757 81.445 18.9569 82.0927 18.2356 82.3951C17.9081 82.5318 17.2803 82.6798 16.8435 82.7231C15.4566 82.8636 13.3338 82.307 11.9125 81.444L11.3762 81.1095L11.9318 80.8628C15.2127 79.4099 17.8173 79.2488 19.8289 80.3743L20.2138 80.5954L20.0321 80.9429Z" fill="black"/>
<path d="M14.7584 77.406C15.1653 77.9582 13.6903 78.8312 12.2424 78.9037C10.8626 78.96 9.43239 78.4838 7.96415 77.4731C6.97289 76.7861 6.53537 76.38 6.60358 76.1838C6.65745 76.022 9.28187 75.6843 10.2065 75.7256C11.2013 75.763 12.2467 75.9731 12.9842 76.2785C13.6047 76.5305 14.5604 77.1451 14.7584 77.406Z" fill="black"/>
</g>
</g>
<defs>
<clipPath id="clip0_713_78">
<rect width="86" height="112" fill="white"/>
</clipPath>
<clipPath id="clip1_713_78">
<rect width="38.8862" height="38.8862" fill="white" transform="translate(23.4407 35.2739)"/>
</clipPath>
<clipPath id="clip2_713_78">
<rect width="44.9621" height="44.9621" fill="white" transform="translate(35.8953 55.9321) rotate(-37.52)"/>
</clipPath>
<clipPath id="clip3_713_78">
<rect width="45.7031" height="45.7031" fill="white" transform="matrix(-0.800208 -0.599722 -0.599722 0.800208 49.9812 54.717)"/>
</clipPath>
</defs>
</svg>
