<svg width="47" height="112" viewBox="0 0 47 112" fill="none" xmlns="http://www.w3.org/2000/svg">
<rect width="47" height="112" fill="white"/>
<path d="M39.253 56.6944C39.3341 65.1528 46.916 67.9676 47 68.0035C46.9359 68.202 45.7885 72.0148 43.0055 75.9531C40.5997 79.358 38.1027 82.7505 34.1693 82.8207C30.3044 82.8897 29.0616 80.6014 24.6428 80.6014C20.2254 80.6014 18.8446 82.7505 15.186 82.8897C11.3892 83.0288 8.49807 79.2077 6.07225 75.8153C1.11539 68.876 -2.67269 56.2065 2.41374 47.6543C4.94056 43.4073 9.4562 40.7179 14.3575 40.6489C18.0858 40.58 21.6049 43.0777 23.884 43.0777C26.1617 43.0777 30.4381 40.074 34.9338 40.5152C36.8158 40.591 42.0987 41.2513 45.491 46.0594C45.2176 46.2235 39.1874 49.6228 39.253 56.6944V56.6944ZM31.9892 35.9242C34.0049 33.5616 35.3616 30.2726 34.9915 27C32.086 27.1131 28.5726 28.8748 26.4886 31.2362C24.6209 33.3272 22.9852 36.6741 23.4265 39.8819C26.665 40.1245 29.9734 38.2884 31.9892 35.9242" fill="black"/>
</svg>
