<svg width="77" height="112" viewBox="0 0 77 112" fill="none" xmlns="http://www.w3.org/2000/svg">
<rect width="77" height="112" fill="white"/>
<g clip-path="url(#clip0_713_141)">
<path d="M8.89264 79.5014C8.86486 76.7621 6.9467 75.7274 6.9467 75.7274C6.9467 75.7274 14.4351 76.3582 14.6201 66.4559C14.6201 66.4559 15.3731 62.9046 32.257 64.3697C33.6812 64.4941 37.0572 72.3768 37.2947 74.9168C37.5342 77.4589 37.7238 79.5014 37.7238 79.5014H50.7194C50.6064 76.438 48.2646 75.4413 46.9494 74.3238C48.0645 64.7109 49.9285 55.4531 54.3667 55.2487C57.8265 55.0907 60.8838 54.0263 62.3775 52.9228C63.8723 51.8201 73.2856 51.6155 74.0941 50.7032C74.9144 49.7925 77.4439 47.1648 76.9326 46.0533C76.434 44.9347 71.814 43.7212 71.814 43.7212C71.814 43.7212 71.2582 42.4052 70.8545 41.5884C70.4497 40.7812 66.0916 39.2625 66.0916 39.2625C66.0916 39.2625 65.1904 36.4253 64.4817 35.3086C63.7679 34.1908 61.4412 37.2313 61.4412 37.2313C61.4412 37.2313 53.2985 37.2426 50.7011 36.4253C47.1606 35.3086 46.2941 33.23 41.2856 33.182C37.3915 33.1482 36.7527 35.8056 33.2537 35.9617C29.7281 36.1278 23.1471 33.6585 13.9848 35.1414C4.81011 36.6248 1.26019 46.4535 0.558779 49.8006C-0.15153 53.1383 2.58076 60.9692 2.8898 64.4002C3.19749 67.8212 0.65559 70.3963 0.097914 72.1532C-0.450054 73.8972 1.48644 79.5012 1.48644 79.5012C1.48644 79.5012 8.9018 80.2139 8.89264 79.5014Z" fill="black"/>
</g>
<defs>
<clipPath id="clip0_713_141">
<rect width="77" height="77" fill="white" transform="translate(0 18)"/>
</clipPath>
</defs>
</svg>
