<svg width="74" height="112" viewBox="0 0 74 112" fill="none" xmlns="http://www.w3.org/2000/svg">
<rect width="74" height="112" fill="white"/>
<path d="M10.253 35.8408H2.89746V38.1198H5.03497V44.7209H2.89746V46.9999H10.253V44.7209H8.06834V38.1198H10.253V35.8408Z" fill="black"/>
<path d="M31.5322 63.1781H38.9663V60.6634H34.5656V52.019H31.5322V63.1781Z" fill="black"/>
<path d="M73.796 75.9503L70.9512 64.7913H67.3677L64.5229 75.9503H67.4777L67.8864 73.9857H70.4325L70.8412 75.9503H73.796ZM68.3736 71.7224C68.7822 69.8207 68.9708 68.6105 69.1123 67.1331H69.2066C69.3481 68.6105 69.5367 69.8207 69.9453 71.7224V71.7539H68.3736V71.7224Z" fill="black"/>
<path d="M11.2822 40.5791H71.5248" stroke="black" stroke-width="2.55446"/>
<path d="M0.212891 71.4453H60.4555" stroke="black" stroke-width="2.55446"/>
<path d="M0 57.396H23.8416" stroke="black" stroke-width="2.55446"/>
<path d="M41.2971 57.396H71.5248" stroke="black" stroke-width="2.55446"/>
</svg>
